<svg width="134" height="32" viewBox="0 0 134 32" fill="none" xmlns="http://www.w3.org/2000/svg">
<g clip-path="url(#clip0_6004_1275)">
<path d="M9.23508 18.8532H5.94287V25.6571H13.8442L9.23508 18.8532Z" fill="white"/>
<path d="M20.8675 5.90388L13.8441 15.7805L20.648 26.0961H25.2571V5.90388H20.8675Z" fill="white"/>
<path d="M9.23508 13.3662H5.94287V6.34285H13.8442L9.23508 13.3662Z" fill="white"/>
</g>
<path d="M69.9165 10.7737C71.5828 10.7737 73.0409 11.0768 74.2906 11.6827C75.5403 12.2696 76.5158 13.1217 77.2164 14.2388C77.917 15.3371 78.267 16.6629 78.267 18.2156C78.267 19.7493 77.917 21.0749 77.2164 22.192C76.5158 23.3092 75.5404 24.1708 74.2906 24.7768C73.0409 25.3637 71.5828 25.6571 69.9165 25.6571C68.2692 25.6571 66.8111 25.3638 65.5424 24.7768C64.2928 24.1709 63.3177 23.3091 62.6171 22.192C61.9166 21.0749 61.5661 19.7493 61.5661 18.2156C61.5661 16.6629 61.9165 15.3371 62.6171 14.2388C63.3177 13.1217 64.2928 12.2696 65.5424 11.6827C66.8111 11.0767 68.2692 10.7737 69.9165 10.7737ZM84.89 18.272C84.89 19.2566 85.1171 19.9386 85.5715 20.3173C86.0449 20.696 86.8877 20.8853 88.0995 20.8853C89.3302 20.8853 90.1446 20.7149 90.5422 20.3741C90.9327 20.0368 91.14 19.4498 91.1644 18.6134L91.1669 18.4427V11.0579H96.5068V25.3729H91.5079V21.0274H91.2237C91.129 21.8227 90.8734 22.5707 90.4569 23.2712C90.0403 23.9718 89.4249 24.5494 88.6108 25.0038C87.7965 25.4393 86.736 25.6571 85.4294 25.6571C84.104 25.6571 83.0056 25.4204 82.1346 24.947C81.2636 24.4737 80.6105 23.8298 80.175 23.0156C79.7584 22.2014 79.5502 21.2734 79.5502 20.232V11.0579H84.89V18.272ZM39.5113 13.4152H43.3455L47.9752 6.34285H54.3661L47.7764 15.6876L54.224 25.3729H47.8336L43.4023 18.6129H39.5113V25.3729H34.1714V6.34285H39.5113V13.4152ZM60.2867 25.3729H54.9469V6.34285H60.2867V25.3729ZM104.696 11.0579H108.588L110.481 11.0575L115.429 11.0579V25.3729H110.089V15.4316H108.814L104.696 15.432V19.1528C104.696 19.7207 104.8 20.0994 105.008 20.2887C105.236 20.4781 105.652 20.5729 106.258 20.5729H108.814V25.3729H105.065C103.285 25.3729 101.884 24.928 100.862 24.0381C99.8581 23.1481 99.3561 21.7753 99.3561 19.9196V15.432H97.2544V11.0579H99.3561V8.58665H104.696V11.0579ZM123.724 11.0579H127.842V15.432H123.724V19.1528C123.724 19.7207 123.828 20.0994 124.036 20.2887C124.263 20.4781 124.68 20.5729 125.286 20.5729H127.842V25.3729H124.093C122.313 25.3729 120.912 24.928 119.89 24.0381C118.886 23.1481 118.384 21.7753 118.384 19.9196V15.432H116.282V11.0579H118.384V8.58665H123.724V11.0579ZM69.9165 15.4602C68.7047 15.4602 67.8904 15.6591 67.4739 16.0567C67.0573 16.4544 66.8491 17.1742 66.8491 18.2156C66.8491 19.2569 67.0574 19.9765 67.4739 20.3741C67.8904 20.7528 68.7047 20.9421 69.9165 20.9421C71.1283 20.9421 71.9426 20.7528 72.3592 20.3741C72.7758 19.9765 72.9844 19.257 72.9844 18.2156C72.9844 17.1742 72.7758 16.4544 72.3592 16.0567C71.9426 15.6592 71.1283 15.4602 69.9165 15.4602Z" fill="white"/>
<defs>
<clipPath id="clip0_6004_1275">
<rect x="5.94287" y="6.34285" width="19.3143" height="19.3143" rx="3.21905" fill="white"/>
</clipPath>
</defs>
</svg>
